<svg width="25" height="24" viewBox="0 0 25 24" fill="none" xmlns="http://www.w3.org/2000/svg">
<path d="M9.5 10C9.23478 10 8.98043 10.1054 8.79289 10.2929C8.60536 10.4804 8.5 10.7348 8.5 11V13C8.5 13.2652 8.60536 13.5196 8.79289 13.7071C8.98043 13.8946 9.23478 14 9.5 14C9.76522 14 10.0196 13.8946 10.2071 13.7071C10.3946 13.5196 10.5 13.2652 10.5 13V11C10.5 10.7348 10.3946 10.4804 10.2071 10.2929C10.0196 10.1054 9.76522 10 9.5 10ZM21.5 11C21.7652 11 22.0196 10.8946 22.2071 10.7071C22.3946 10.5196 22.5 10.2652 22.5 10V6C22.5 5.73478 22.3946 5.48043 22.2071 5.29289C22.0196 5.10536 21.7652 5 21.5 5H3.5C3.23478 5 2.98043 5.10536 2.79289 5.29289C2.60536 5.48043 2.5 5.73478 2.5 6V10C2.5 10.2652 2.60536 10.5196 2.79289 10.7071C2.98043 10.8946 3.23478 11 3.5 11C3.76522 11 4.01957 11.1054 4.20711 11.2929C4.39464 11.4804 4.5 11.7348 4.5 12C4.5 12.2652 4.39464 12.5196 4.20711 12.7071C4.01957 12.8946 3.76522 13 3.5 13C3.23478 13 2.98043 13.1054 2.79289 13.2929C2.60536 13.4804 2.5 13.7348 2.5 14V18C2.5 18.2652 2.60536 18.5196 2.79289 18.7071C2.98043 18.8946 3.23478 19 3.5 19H21.5C21.7652 19 22.0196 18.8946 22.2071 18.7071C22.3946 18.5196 22.5 18.2652 22.5 18V14C22.5 13.7348 22.3946 13.4804 22.2071 13.2929C22.0196 13.1054 21.7652 13 21.5 13C21.2348 13 20.9804 12.8946 20.7929 12.7071C20.6054 12.5196 20.5 12.2652 20.5 12C20.5 11.7348 20.6054 11.4804 20.7929 11.2929C20.9804 11.1054 21.2348 11 21.5 11ZM20.5 9.18C19.9208 9.3902 19.4205 9.77363 19.0668 10.2782C18.7132 10.7827 18.5235 11.3839 18.5235 12C18.5235 12.6161 18.7132 13.2173 19.0668 13.7218C19.4205 14.2264 19.9208 14.6098 20.5 14.82V17H10.5C10.5 16.7348 10.3946 16.4804 10.2071 16.2929C10.0196 16.1054 9.76522 16 9.5 16C9.23478 16 8.98043 16.1054 8.79289 16.2929C8.60536 16.4804 8.5 16.7348 8.5 17H4.5V14.82C5.07915 14.6098 5.57954 14.2264 5.93316 13.7218C6.28678 13.2173 6.47648 12.6161 6.47648 12C6.47648 11.3839 6.28678 10.7827 5.93316 10.2782C5.57954 9.77363 5.07915 9.3902 4.5 9.18V7H8.5C8.5 7.26522 8.60536 7.51957 8.79289 7.70711C8.98043 7.89464 9.23478 8 9.5 8C9.76522 8 10.0196 7.89464 10.2071 7.70711C10.3946 7.51957 10.5 7.26522 10.5 7H20.5V9.18Z" fill="#3E3E40"/>
</svg>
