<svg width="60" height="64" viewBox="0 0 60 64" fill="none" xmlns="http://www.w3.org/2000/svg">
<rect x="14.4444" y="4.44542" width="31.1111" height="31.1111" rx="1.33333" stroke="black" stroke-width="0.888889"/>
<path d="M26.8208 10.4941C26.5258 10.3223 26.1473 10.4222 25.9755 10.7172C25.8037 11.0123 25.9036 11.3907 26.1987 11.5625L26.8208 10.4941ZM30.0001 13.0608L30.5152 13.4026C30.6093 13.2607 30.6407 13.0863 30.6021 12.9205C30.5635 12.7548 30.4582 12.6122 30.3111 12.5266L30.0001 13.0608ZM27.3908 15.8752C27.202 16.1597 27.2796 16.5433 27.5641 16.7321C27.8486 16.9209 28.2322 16.8433 28.421 16.5588L27.3908 15.8752ZM35.8218 14.6776C35.5685 14.4487 35.1776 14.4685 34.9487 14.7218C34.7198 14.9751 34.7396 15.366 34.9929 15.5949L35.8218 14.6776ZM26.1987 11.5625L29.689 13.595L30.3111 12.5266L26.8208 10.4941L26.1987 11.5625ZM29.485 12.719L27.3908 15.8752L28.421 16.5588L30.5152 13.4026L29.485 12.719ZM37.4097 21.0168C37.4097 25.0641 34.0975 28.3546 30.0001 28.3546V29.5909C34.7699 29.5909 38.646 25.7574 38.646 21.0168H37.4097ZM30.0001 28.3546C25.9026 28.3546 22.5905 25.0641 22.5905 21.0168H21.3541C21.3541 25.7574 25.2303 29.5909 30.0001 29.5909V28.3546ZM22.5905 21.0168C22.5905 16.9694 25.9026 13.679 30.0001 13.679V12.4426C25.2303 12.4426 21.3541 16.2762 21.3541 21.0168H22.5905ZM34.9929 15.5949C36.4795 16.9384 37.4097 18.8701 37.4097 21.0168H38.646C38.646 18.5041 37.5554 16.2442 35.8218 14.6776L34.9929 15.5949Z" fill="black"/>
<path d="M20.026 46.7212C18.6754 47.6465 18 49.1777 18 51.315C18 54.5209 21.9286 60.0008 25.4712 60.0008C29.0139 60.0008 31.0684 60.0008 34.5359 60.0008C38.0033 60.0008 40.1094 56.9603 40.1094 54.5209C40.1094 51.0858 40.1094 47.6506 40.1094 44.2155C40.1094 42.9073 39.0489 41.8467 37.7406 41.8467H37.7334C36.4291 41.8467 35.3717 42.9041 35.3717 44.2084" fill="white"/>
<path d="M20.026 46.7212C18.6754 47.6465 18 49.1777 18 51.315C18 54.5209 21.9286 60.0008 25.4712 60.0008C29.0139 60.0008 31.0684 60.0008 34.5359 60.0008C38.0033 60.0008 40.1094 56.9603 40.1094 54.5209C40.1094 51.0858 40.1094 47.6506 40.1094 44.2155C40.1094 42.9073 39.0489 41.8467 37.7406 41.8467H37.7334C36.4291 41.8467 35.3717 42.9041 35.3717 44.2084" stroke="black" stroke-width="1.5" stroke-linecap="round"/>
<path d="M21.1436 48.5072V32.3679C21.1436 31.0607 22.2033 30.001 23.5105 30.001C23.5127 30.001 23.5149 30.001 23.5171 30.001C24.829 30.0046 25.8905 31.0691 25.8905 32.381V44.675" fill="white"/>
<path d="M21.1436 48.5072V32.3679C21.1436 31.0607 22.2033 30.001 23.5105 30.001C23.5127 30.001 23.5149 30.001 23.5171 30.001C24.829 30.0046 25.8905 31.0691 25.8905 32.381V44.675" stroke="black" stroke-width="1.5" stroke-linecap="round"/>
<path d="M25.8906 44.2147V41.0618C25.8906 39.7467 26.9567 38.6807 28.2717 38.6807C29.5868 38.6807 30.6528 39.7467 30.6528 41.0618V44.2147" fill="white"/>
<path d="M25.8906 44.2147V41.0618C25.8906 39.7467 26.9567 38.6807 28.2717 38.6807C29.5868 38.6807 30.6528 39.7467 30.6528 41.0618V44.2147" stroke="black" stroke-width="1.5" stroke-linecap="round" stroke-linejoin="round"/>
<path d="M30.6338 43.9842V41.8425C30.6338 40.5342 31.6943 39.4736 33.0027 39.4736C34.311 39.4736 35.3715 40.5342 35.3715 41.8425V44.2114" fill="white"/>
<path d="M30.6338 43.9842V41.8425C30.6338 40.5342 31.6943 39.4736 33.0027 39.4736C34.311 39.4736 35.3715 40.5342 35.3715 41.8425V44.2114" stroke="black" stroke-width="1.5" stroke-linecap="round" stroke-linejoin="round"/>
</svg>
